<svg width="98.804375" height="84.316971" viewBox="0 0 98.804375 84.316971" xmlns="http://www.w3.org/2000/svg" xmlns:usvg="https://github.com/RazrFalcon/usvg" usvg:version="0.8.0">
    <path id="path13" fill="#fdd005" transform="matrix(1.25 0 0 -1.25 -134.37925 527.81434)" d="M 120.7061 403.7695 L 120.7061 354.7979 L 172.9883 354.7979 L 172.9883 403.7695 Z"/>
    <path id="path15" fill="#231f20" transform="matrix(1.25 0 0 -1.25 -134.37925 527.81434)" d="M 164.9512 383.4238 C 164.2314 383.2803 163.0078 382.7041 162.2148 382.3438 C 162.0713 382.2715 162.0713 382.0557 162.2148 382.0557 C 162.4316 381.9834 162.5762 381.9121 162.7188 381.7676 C 163.0801 381.3359 163.5117 380.9756 163.5117 380.3994 C 163.5117 379.752 163.1514 379.5361 163.2236 378.96 C 163.4395 377.8076 164.375 376.6563 164.375 375.4316 C 164.3037 374.4961 163.4395 374.4961 162.9355 373.8477 C 162.791 373.6318 162.7188 373.416 162.7188 373.1279 C 162.7188 372.8398 162.6475 372.3359 162.9355 372.3359 C 163.2949 372.2637 163.3672 372.9834 163.7275 372.9834 C 164.2314 372.9121 164.1602 372.1914 164.5918 372.1914 L 183.5273 372.1914 C 183.4551 372.4082 183.3115 372.6953 183.168 372.7676 C 182.2314 373.6318 179.8555 374.7842 179.4238 376.1514 C 178.7031 378.2402 179.6396 380.9033 179.9277 383.208 C 180.9355 389.9033 180.5762 393.5762 179.3516 399.1201 C 178.7031 402.2881 178.1992 405.0957 177.2637 408.1914 C 177.1191 408.7676 176.3281 409.5596 176.0391 410.0635 C 175.8232 410.4238 175.6074 411.0723 175.5352 411.5039 C 175.0313 413.8799 175.248 416.1836 173.5195 418.2002 C 172.8711 418.9199 171.6475 418.9922 170.8555 419.4961 C 169.3438 420.2881 167.832 421.0801 166.3193 422.0156 C 166.1035 422.1602 165.4551 422.376 165.0957 422.1602 C 166.8232 420.9355 167.9756 419.4961 168.4795 417.3359 C 168.6953 416.3281 168.9834 415.5361 167.9756 414.96 C 167.6875 414.8154 165.8154 413.5918 164.9512 411.5039 C 164.7354 411.0723 163.5117 408.2637 162.0713 405.5996 C 160.3438 406.5361 158.6152 406.6074 157.3916 406.6074 C 156.0957 406.6074 153.791 406.4639 152.7109 405.6719 C 150.4082 403.9434 149.3994 401.7119 148.6797 399.1914 C 148.1035 397.248 147.7441 395.2314 147.5996 393.2158 C 147.4551 390.4795 147.7441 387.4561 148.0313 384.7197 C 148.248 382.9199 148.4629 381.1914 148.6074 379.3916 C 148.9668 377.4482 148.8955 375.9355 148.8232 375.5762 C 148.1758 373.5596 147.168 372.8398 145.2236 372.4795 C 144.9355 372.4795 144.791 372.3359 144.8633 372.1914 C 146.6641 372.1914 148.4629 372.1914 150.2637 372.1914 L 150.2637 372.1914 L 156.8877 372.1914 C 157.4629 372.1914 157.6074 372.4795 158.1836 372.9834 C 158.9756 373.7754 157.8955 375.1436 158.1836 376.9434 C 158.832 381.4082 160.7754 385.4395 161.7109 389.7598 C 161.8555 390.2637 161.9277 390.9121 162 391.6318 C 162.3594 389.9033 162.8633 388.248 163.3672 386.5918 C 163.8711 384.8643 164.375 383.9277 165.168 383.4961 L 165.168 383.4961 C 165.0957 383.4961 165.0234 383.4961 164.9512 383.4238 Z"/>
    <path id="path17" fill="#ffffff" transform="matrix(1.25 0 0 -1.25 -134.37925 527.81434)" d="M 168.6953 372.4082 C 169.0557 373.6318 169.2715 374.4961 168.8398 375.792 C 168.5508 376.7998 167.6875 377.5918 167.3281 378.5996 C 166.8955 379.9678 167.2559 381.4795 166.5352 382.7041 C 166.3916 382.9922 166.0313 383.2803 165.6719 383.4961 C 164.8076 384 164.5195 384.2881 164.1602 385.1514 C 164.0156 385.4395 163.8711 385.7275 163.7988 386.0156 C 163.0078 388.3193 162.4316 390.6953 162 393 C 161.7832 391.7754 161.6396 390.624 161.4238 389.3994 C 161.0635 388.0322 160.7031 386.7354 160.2715 385.4395 C 159.3359 382.7041 158.3994 379.8955 157.9668 377.0156 C 157.8955 376.4395 157.8955 375.9355 157.9668 375.3594 C 158.0391 374.8555 158.4717 373.7754 157.9668 373.2002 C 157.4629 372.624 157.3193 372.4795 156.8154 372.4082 C 155.1602 372.4082 153.2148 372.4082 151.5596 372.4082 C 151.9199 372.5518 152.2793 372.8398 152.4961 373.2002 C 153.1436 374.5674 151.4873 378.8877 151.127 380.4717 C 150.8398 381.8398 150.1914 383.1357 149.9756 384.5039 C 149.9033 385.4395 149.7598 388.3193 149.9033 389.04 C 149.9033 389.2559 150.0469 389.3281 150.1914 389.04 C 150.3359 387.8154 149.9756 385.0801 150.623 383.7119 C 150.7676 383.3516 151.416 383.5674 151.6309 383.8555 C 152.207 384.5762 152.4961 385.4395 152.7832 386.3037 C 153.2148 387.8154 153.5762 388.6797 153.791 390.6953 C 154.0078 392.6396 153.5762 393.2881 153.791 395.2314 C 153.9355 396.0234 153.7188 396.8877 154.1514 398.1836 C 154.6553 399.6953 155.0879 400.7041 156.168 401.6396 C 157.0313 402.5039 158.3994 402.7197 159.623 402.8643 C 162.9355 402.8643 162.5039 399.2637 163.2236 397.3916 C 163.4395 396.7441 164.0879 395.1602 164.4473 394.5117 C 164.7354 393.8643 165.2393 392.7119 165.5996 391.6318 C 165.8877 390.8398 165.8154 389.6875 165.5996 389.2559 C 165.3828 388.8955 165.7441 388.6797 166.0313 388.9678 C 166.3916 389.5439 166.3916 389.9756 166.6074 390.624 C 166.8232 391.2715 166.9668 392.2803 167.1836 392.8555 C 167.543 393.8643 168.2637 394.7998 168.4795 395.8799 C 168.6953 396.8877 168.5508 397.8955 168.1914 398.9033 C 167.9756 399.2637 167.1836 401.5674 166.752 402.2158 C 165.7441 403.2959 164.9512 403.4395 163.2949 404.7354 C 163.0078 404.9521 162.6475 405.168 162.2871 405.3838 C 163.1514 407.3994 164.3037 409.2002 165.0957 411.2158 C 165.7441 412.8721 166.8232 413.7354 168.0469 414.6719 C 170.1348 413.4482 169.9922 413.376 170.2793 410.9277 C 170.207 409.6318 170.3516 408.3359 170.2793 407.1113 C 170.2793 406.6074 169.9199 405.4561 169.9199 404.9521 C 169.9922 404.1602 169.9199 403.8721 170.0635 403.0078 C 170.1348 402.3594 170.7832 401.7842 170.6396 401.1357 C 170.207 398.2559 168.9834 395.5918 168.9121 392.7119 C 168.8398 389.9033 169.3438 386.0879 171.7188 384.2158 C 172.0078 384 172.584 384.3594 172.6553 384.7197 C 173.0156 386.376 172.5117 388.1758 172.7275 389.832 C 172.8711 390.9121 173.1602 392.1357 173.5195 393.2158 C 173.8076 394.0801 174.5273 396.0957 175.1035 396.7441 C 175.248 397.0322 175.6074 396.8154 175.4629 396.5996 C 175.3916 396.5996 174.168 393.9355 173.6641 391.9199 C 173.0879 389.7598 172.584 386.5918 173.9512 384.6475 C 174.3828 383.9277 175.3193 383.208 175.9668 382.1279 C 176.3281 381.4795 176.543 378.5996 176.3994 377.8799 C 176.1113 375.8643 173.6641 372.624 171.2871 372.4082 C 170.4238 372.4082 169.5596 372.4082 168.6953 372.4082 Z"/>
    <path id="path19" fill="#ffffff" transform="matrix(1.25 0 0 -1.25 -134.37925 527.81434)" d="M 164.4473 381.4082 L 164.4473 381.5518 C 164.375 381.624 164.1602 381.7676 164.1602 381.7676 C 163.8711 382.0557 164.0156 382.6318 164.4473 382.7041 C 165.168 382.9199 165.959 382.7041 166.1758 382.0557 C 166.3916 381.4795 166.0313 380.7598 165.5273 380.3281 C 165.0957 379.8955 164.375 380.2559 164.0879 380.1836 C 163.9434 380.1113 163.9434 380.04 164.0156 379.9678 C 164.3037 379.8242 164.8076 379.8242 165.2393 379.8242 C 165.5273 379.8242 165.8154 379.9678 166.0313 379.8955 C 166.1758 379.8242 166.248 379.5361 166.248 379.3916 C 166.248 379.0322 166.0313 378.6719 166.0313 378.3838 C 166.1035 378.168 166.3193 378.168 166.4629 378.0234 C 167.1113 377.0156 167.0391 376.4395 167.1836 375.5039 C 167.3281 374.3516 168.4795 374.0635 168.4082 373.7754 C 168.4082 373.7041 168.3359 373.6318 168.1914 373.7041 C 167.832 374.0635 167.1836 374.0635 166.6797 373.9922 C 166.3916 373.9922 166.248 373.5596 165.8877 373.4873 C 165.7441 373.416 165.4551 373.4873 165.3828 373.7041 C 165.168 373.9922 165.5273 374.4961 165.3115 374.7842 C 165.168 375 164.5918 375.0723 164.5918 375.5039 C 164.5918 376.6563 163.7988 377.7354 163.5117 378.8154 C 163.4395 379.1035 163.4395 379.248 163.5117 379.5361 C 163.7275 380.04 163.8711 380.6875 163.5117 381.1914 C 163.3672 381.4082 164.1602 381.1201 164.4473 381.4082 Z"/>
    <path id="path21" fill="#f57215" transform="matrix(1.25 0 0 -1.25 -134.37925 527.81434)" d="M 165.959 421.7998 C 167.1836 421.1514 168.6953 418.8477 169.4873 417.624 C 169.8477 417.1201 170.3516 417.5518 170.1348 417.9834 C 168.9121 419.7119 167.4717 421.1514 165.959 421.7998 L 165.959 421.7998 M 159.8398 402.8643 C 160.7754 402.6475 162 401.7119 162.2871 400.8477 C 162.5762 399.9834 162.6475 399.4795 162.2871 396.96 C 162.2871 396.8154 162.5762 396.6719 162.6475 396.96 C 162.7188 397.6074 162.6475 396.96 162.7188 397.248 C 162.791 397.6797 163.0801 397.6074 163.2236 397.3916 C 162.9355 398.2559 163.1514 399.0479 164.2314 398.9756 C 164.8076 398.9033 164.7354 398.4717 165.6719 398.2559 C 165.959 398.1836 166.6074 398.3994 166.752 398.9033 C 167.1113 399.9834 166.752 400.9199 165.8877 401.6396 C 165.3828 402.0723 164.7354 402.2881 164.0879 401.8555 C 163.9434 401.7119 163.7275 401.2803 163.7275 401.0635 C 163.8711 400.1279 163.3672 400.416 163.0078 401.0635 C 162.5039 401.8555 160.8477 403.0078 159.8398 402.8643 L 159.8398 402.8643 M 165.8154 389.1836 C 166.248 390.5518 165.7441 392.5674 165.4551 394.0801 C 165.3115 394.584 165.959 394.7275 166.1035 394.2236 C 166.5352 392.208 166.4629 390.6953 165.8154 389.1836 L 165.8154 389.1836 M 168.1914 415.1035 C 168.0469 415.0322 167.4717 414.5996 167.1113 414.3838 C 167.9033 414.2402 168.9834 413.6641 169.4873 412.7275 C 169.8477 411.9355 170.1348 410.7842 170.2793 409.9922 C 170.2793 410.4961 170.207 412.7275 170.4238 413.0156 C 170.7832 413.4482 171.5039 413.0879 172.0078 412.8721 C 172.3672 412.7275 172.584 412.2959 172.9434 412.0801 C 173.3037 411.9355 173.6641 411.8643 174.0234 412.0078 C 174.3828 412.0801 174.7441 412.3682 174.8877 412.7275 C 175.1035 413.376 174.4551 415.9678 173.0156 415.3916 C 172.4395 415.1758 172.3672 414.3115 171.8633 413.8799 C 171.5762 413.6641 171.2871 413.5918 170.9277 413.6641 C 170.5674 413.6641 170.1348 413.8799 169.7754 414.168 C 169.2715 414.5273 168.7676 414.96 168.1914 415.1035 Z"/>
    <path id="path23" fill="#231f20" transform="matrix(1.25 0 0 -1.25 -134.37925 527.81434)" d="M 165.0957 382.3438 C 165.3115 382.3438 165.5996 382.0557 165.5273 381.9834 C 165.3828 381.8398 165.3115 382.0557 165.0234 382.0557 C 164.8076 382.0557 164.5918 381.9834 164.5918 382.1279 C 164.5918 382.2715 164.8076 382.3438 165.0957 382.3438 Z"/>
    <path id="path25" fill="#231f20" transform="matrix(1.25 0 0 -1.25 -134.37925 527.81434)" d="M 112.4409 384.252 L 107.8784 384.7207 C 108.0503 385.5195 108.2988 386.1484 108.6235 386.6074 C 108.9478 387.0654 109.415 387.4629 110.0254 387.8008 C 110.4634 388.043 111.0654 388.2314 111.832 388.3652 C 112.5986 388.498 113.4277 388.5645 114.3193 388.5645 C 115.751 388.5645 116.9009 388.4844 117.769 388.3242 C 118.6372 388.1641 119.3604 387.8301 119.9395 387.3232 C 120.3457 386.9717 120.6665 386.4736 120.9014 385.8301 C 121.1357 385.1855 121.2534 384.5703 121.2534 383.9854 L 121.2534 378.4922 C 121.2534 377.9063 121.2905 377.4482 121.3647 377.1162 C 121.439 376.7842 121.6011 376.3613 121.8511 375.8457 L 117.3809 375.8457 C 117.2012 376.167 117.0845 376.4121 117.0298 376.5801 C 116.9751 376.748 116.9209 377.0137 116.8662 377.374 C 116.2393 376.7705 115.6167 376.3398 114.9985 376.082 C 114.1523 375.7363 113.1694 375.5645 112.0498 375.5645 C 110.5615 375.5645 109.4321 375.9082 108.6606 376.5957 C 107.8892 377.2832 107.5034 378.1318 107.5034 379.1406 C 107.5034 380.0859 107.7813 380.8633 108.3374 381.4736 C 108.8936 382.083 109.9199 382.5361 111.416 382.834 C 113.2095 383.1934 114.3726 383.4453 114.9053 383.5898 C 115.4375 383.7344 116.0015 383.9238 116.5972 384.1582 C 116.5972 384.7363 116.4751 385.1426 116.2319 385.373 C 115.9888 385.6055 115.561 385.7207 114.9487 385.7207 C 114.1636 385.7207 113.5752 385.5957 113.1826 385.3477 C 112.8765 385.1533 112.6294 384.7881 112.4409 384.252 M 116.5972 381.752 C 115.937 381.5176 115.25 381.3115 114.5352 381.1328 C 113.561 380.875 112.9443 380.6211 112.6851 380.3721 C 112.418 380.1152 112.2847 379.8223 112.2847 379.4951 C 112.2847 379.1211 112.416 378.8145 112.6792 378.5771 C 112.9424 378.3398 113.3291 378.2207 113.8398 378.2207 C 114.374 378.2207 114.8706 378.3496 115.3306 378.6064 C 115.79 378.8633 116.1162 379.1777 116.3086 379.5479 C 116.501 379.918 116.5972 380.3984 116.5972 380.9922 Z"/>
    <path id="path27" fill="#231f20" transform="matrix(1.25 0 0 -1.25 -134.37925 527.81434)" d="M 124.2612 393.0332 L 129.0425 393.0332 L 129.0425 375.8457 L 124.2612 375.8457 Z"/>
    <path id="path29" fill="#231f20" transform="matrix(1.25 0 0 -1.25 -134.37925 527.81434)" d="M 137.8472 393.0332 L 137.8472 388.2832 L 140.4722 388.2832 L 140.4722 384.7832 L 137.8472 384.7832 L 137.8472 380.3857 C 137.8472 379.8574 137.8979 379.5068 138 379.3359 C 138.1567 379.0713 138.4312 378.9395 138.8237 378.9395 C 139.1768 378.9395 139.6709 379.041 140.3066 379.2422 L 140.6597 375.9512 C 139.478 375.6934 138.3745 375.5645 137.3501 375.5645 C 136.1606 375.5645 135.2842 375.7168 134.7207 376.0195 C 134.1572 376.3242 133.7407 376.7852 133.4707 377.4043 C 133.2007 378.0234 133.0659 379.0273 133.0659 380.4141 L 133.0659 384.7832 L 131.3159 384.7832 L 131.3159 388.2832 L 133.0659 388.2832 L 133.0659 390.5762 Z"/>
    <path id="path31" fill="#231f20" transform="matrix(1.25 0 0 -1.25 -134.37925 527.81434)" d="M 124.2656 373.3066 L 129.0469 373.3066 L 129.0469 356.1191 L 124.2656 356.1191 Z"/>
    <path id="path33" fill="#231f20" transform="matrix(1.25 0 0 -1.25 -134.37925 527.81434)" d="M 132.2891 373.3066 L 137.0703 373.3066 L 137.0703 370.0566 L 132.2891 370.0566 L 132.2891 373.3066 M 132.2891 368.5566 L 137.0703 368.5566 L 137.0703 356.1191 L 132.2891 356.1191 Z"/>
    <path id="path35" fill="#231f20" transform="matrix(1.25 0 0 -1.25 -134.37925 527.81434)" d="M 140.0938 368.5566 L 144.5459 368.5566 L 144.5459 366.5225 C 145.209 367.3535 145.8794 367.9473 146.5581 368.3027 C 147.2368 368.6602 148.0635 368.8379 149.0386 368.8379 C 150.3564 368.8379 151.3877 368.4453 152.1328 367.6602 C 152.8774 366.876 153.25 365.6641 153.25 364.0244 L 153.25 356.1191 L 148.4688 356.1191 L 148.4688 362.9482 C 148.4688 363.7275 148.3242 364.2793 148.0356 364.6025 C 147.7466 364.9258 147.3408 365.0879 146.8184 365.0879 C 146.2407 365.0879 145.7725 364.8691 145.4136 364.4336 C 145.0542 363.9961 144.875 363.2129 144.875 362.082 L 144.875 356.1191 L 140.0938 356.1191 Z"/>
    <path id="path37" fill="#231f20" transform="matrix(1.25 0 0 -1.25 -134.37925 527.81434)" d="M 169.2266 356.1191 L 164.7627 356.1191 L 164.7627 358.1309 C 164.0996 357.3037 163.4307 356.7148 162.7559 356.3643 C 162.0811 356.0137 161.2529 355.8379 160.2705 355.8379 C 158.96 355.8379 157.9321 356.2305 157.1875 357.0146 C 156.4424 357.7988 156.0703 359.0078 156.0703 360.6396 L 156.0703 368.5566 L 160.8516 368.5566 L 160.8516 361.7129 C 160.8516 360.9316 160.9956 360.377 161.2847 360.0488 C 161.5732 359.7207 161.979 359.5566 162.502 359.5566 C 163.0713 359.5566 163.5376 359.7754 163.9009 360.2129 C 164.2637 360.6504 164.4453 361.4355 164.4453 362.5684 L 164.4453 368.5566 L 169.2266 368.5566 Z"/>
    <path id="path39" fill="#231f20" transform="matrix(1.25 0 0 -1.25 -134.37925 527.81434)" d="M 171.0781 368.5566 L 176.7344 368.5566 L 178.6875 365.0898 L 180.9844 368.5566 L 186.2344 368.5566 L 181.9985 362.6309 L 186.5469 356.1191 L 180.9844 356.1191 L 178.6875 360.125 L 175.9844 356.1191 L 170.8281 356.1191 L 175.3496 362.6309 Z"/>
</svg>
