<svg width="37.330002" height="37.330002" viewBox="0 0 37.33 37.330001" xmlns="http://www.w3.org/2000/svg" xmlns:usvg="https://github.com/RazrFalcon/usvg" usvg:version="0.8.0">
    <path id="path14_55_" fill="#3a5a80" transform="matrix(0.1 0 0 0.1 0.00200092 2.8660009)" d="M 186.64 115.38 L 226.05 183.65 C 257.33 189.03 286.51 200.71 312.18 217.33 L 186.64 -0.12 L 61.09 217.34 C 86.77 200.72 115.94 189.04 147.23 183.66 L 186.64 115.38"/>
    <path id="path16_55_" fill="#3a5a80" transform="matrix(0.1 0 0 0.1 0.00200092 2.8660009)" d="M 296.54 233.25 C 279.43 222.7 260.7 214.53 240.81 209.21 C 223.52 204.59 205.39 202.1 186.65 202.1 C 167.92 202.1 149.77 204.59 132.47 209.21 C 112.58 214.53 93.85 222.7 76.75 233.25 C 44.23 253.32 17.59 282.01 0 316.1 L 68.66 316.1 C 96.59 281.81 139.09 259.85 186.64 259.85 C 234.19 259.85 276.72 281.81 304.6 316.1 L 373.26 316.1 C 355.7 282.01 329.04 253.32 296.54 233.25"/>
</svg>
