<svg width="130.60001" height="130.60001" viewBox="0 0 130.60352 130.59963" xmlns="http://www.w3.org/2000/svg" xmlns:usvg="https://github.com/RazrFalcon/usvg" usvg:version="0.8.0">
    <path id="path4" fill="#527d97" fill-rule="evenodd" transform="matrix(1 0 0 1 0.00131 32.370714)" d="M 3.5254 0 C 1.755 0.0019531 0 2.002 0 3.5215 L 0 62.3475 C 0 64.1034 1.755 65.8612 3.5273 65.8592 L 19.1793 65.8592 L 19.1793 61.8592 L 5.1793 61.8592 C 4.5938 61.8562 4 61.2672 4 60.6852 L 4 5.1792 C 4 4.5949 4.5938 3.9972 5.1816 3.9992 L 125.4216 3.9992 C 126.01926 3.99725 126.6013 4.5949 126.6032 5.1789 L 126.6032 60.6849 C 126.6012 61.26693 126.01922 61.8568 125.4216 61.8587 L 24.8216 61.8587 L 24.8216 65.8587 L 127.0716 65.8587 C 128.6028 65.8607 130.599 64.1028 130.6009 62.347 L 130.6009 3.519 C 130.6009 2.001 128.6109 0.001 127.0809 -0.001 Z"/>
    <path id="path6" fill="#527d97" transform="matrix(1 0 0 1 0.00131 32.370714)" d="M 19.33 49.9 L 19.33 17.03 L 24.42 17.03 L 24.42 33.328 L 37.939 17.03 L 44.176 17.03 L 31.948 31.141 L 44.4 49.9 L 38.6031 49.9 L 28.0541 34.498 L 24.4199 38.5081 L 24.4199 49.9001 Z"/>
    <path id="path8" fill="#527d97" transform="matrix(1 0 0 1 0.00131 32.370714)" d="M 63.384 21.52 L 58.7639 36.002 L 68.3269 36.001748 Z M 60.2959 17.03 L 66.4949 17.03 L 78.9109 49.9 L 72.7435 49.9 L 69.6563 41.152 L 56.7733 41.152 L 53.6861 49.9 L 47.857 49.9 Z"/>
    <path id="path10" fill="#527d97" transform="matrix(1 0 0 1 0.00131 32.370714)" d="M 82.704 17.03 L 87.5102 17.03 L 87.5102 45.55 L 101.7502 45.55 L 101.7502 49.58 L 82.7042 49.58 Z"/>
    <path id="path12" fill="#527d97" transform="matrix(1 0 0 1 0.00131 32.370714)" d="M 106.09 17.03 L 110.9103 17.03 L 110.9103 49.58 L 106.09 49.58 Z"/>
</svg>
