<svg width="170.56078" height="170.56126" viewBox="0 0 170.56078 170.56126" xmlns="http://www.w3.org/2000/svg" xmlns:usvg="https://github.com/RazrFalcon/usvg" usvg:version="0.8.0">
    <path id="rect5183" fill="#ffffff" fill-opacity="0" transform="matrix(1.0008826 0 0 1.0094534 -89.30794552 -464.655648)" d="M 64.031998 434.33029 L 721.451738 434.33029 L 721.451738 654.2513 L 64.031998 654.2513 Z"/>
    <path id="path12808" fill="#932279" fill-rule="evenodd" transform="matrix(0.00000000000000006947259936197912 -1.1345781776007986 1.06366316126152 0.00000000000000006513084427534905 -2904.456630618084 445.93687454229223)" d="M 323.36653 2798.1614 L 317.96037 2803.9619 L 312.55421 2798.1614 L 312.55421 2757.3353 L 294.54088 2757.3353 L 317.96037 2732.4374 L 340.98524 2757.3353 L 323.36654 2757.3353 Z"/>
    <path id="path12774" fill="#efa724" fill-rule="evenodd" transform="matrix(1.134573648669129 0 0 1.0636674071364198 -275.37446566208837 -2904.4687094126202)" d="M 323.36653 2798.1614 L 317.96037 2803.9619 L 312.55421 2798.1614 L 312.55421 2757.3353 L 294.54088 2757.3353 L 317.96037 2732.4374 L 340.98524 2757.3353 L 323.36654 2757.3353 Z"/>
    <path id="path12784" fill="#262577" fill-rule="evenodd" transform="matrix(0.00000000000000006947259936197912 1.1345781776007986 -1.06366316126152 0.00000000000000006513084427534905 3075.01774437267 -275.3759668580741)" d="M 323.36653 2798.1614 L 317.96037 2803.9619 L 312.55421 2798.1614 L 312.55421 2757.3353 L 294.54088 2757.3353 L 317.96037 2732.4374 L 340.98524 2757.3353 L 323.36654 2757.3353 Z"/>
    <path id="path12796" fill="#9ccd2a" fill-rule="evenodd" transform="matrix(-1.134573648669129 0.00000000000000013894575335812553 -0.00000000000000013026116858098754 -1.0636674071364198 445.93540923056963 3075.029651134196)" d="M 323.36653 2798.1614 L 317.96037 2803.9619 L 312.55421 2798.1614 L 312.55421 2757.3353 L 294.54088 2757.3353 L 317.96037 2732.4374 L 340.98524 2757.3353 L 323.36654 2757.3353 Z"/>
    <path id="rect12744" fill="#9ccd2a" stroke="#ffffff" stroke-width="3.54331" transform="matrix(1.06366316126152 0 0 1.0636674071364198 -687.9024227915146 -2404.45711453462)" d="M 671.98437 2285.7893 L 721.59082 2285.7893 L 721.59082 2335.3958 L 671.98437 2335.3958 Z"/>
    <path id="rect12746" fill="#932279" stroke="#ffffff" stroke-width="3.54331" transform="matrix(1.06366316126152 0 0 1.0636674071364198 -687.9024227915146 -2404.45711453462)" d="M 732.22076 2285.7893 L 781.82721 2285.7893 L 781.82721 2335.3958 L 732.22076 2335.3958 Z"/>
    <path id="rect12748" fill="#efa724" stroke="#ffffff" stroke-width="3.54331" transform="matrix(1.06366316126152 0 0 1.0636674071364198 -687.9024227915146 -2404.45711453462)" d="M 732.22076 2346.0256 L 781.82721 2346.0256 L 781.82721 2395.6321 L 732.22076 2395.6321 Z"/>
    <path id="rect12750" fill="#262577" stroke="#ffffff" stroke-width="3.54331" transform="matrix(1.06366316126152 0 0 1.0636674071364198 -687.9024227915146 -2404.45711453462)" d="M 671.98437 2346.0256 L 721.59082 2346.0256 L 721.59082 2395.6321 L 671.98437 2395.6321 Z"/>
    <path id="rect12760" fill="none" stroke="#ffffff" stroke-width="3.54331" transform="matrix(0.7521234342263411 -0.7521264365132747 0.752123434226341 0.7521264365132748 109.632024063004 -988.0320702267379)" d="M -784.62878 642.40875 L -735.02234 642.40875 L -735.02234 692.0152 L -784.62878 692.0152 Z"/>
    <path id="rect12762" fill="none" stroke="#ffffff" stroke-width="3.54307" transform="matrix(0.7521234342263411 -0.7521264365132747 0.752123434226341 0.7521264365132748 109.632024063004 -988.0320702267379)" d="M -724.39233 642.40875 L -674.78588 642.40875 L -674.78588 692.0152 L -724.39233 692.0152 Z"/>
    <path id="rect12764" fill="none" stroke="#ffffff" stroke-width="3.54331" transform="matrix(1.06366316126152 0 0 1.0636674071364198 109.632024063004 -988.0320702267379)" d="M -15.377623 1009.0679 L 19.699435 973.9908 L 54.776493 1009.0679 L 19.699435 1044.1449 Z"/>
    <path id="rect12766" fill="none" stroke="#ffffff" stroke-width="3.54331" transform="matrix(0.7521234342263411 -0.7521264365132747 0.752123434226341 0.7521264365132748 109.632024063004 -988.0320702267379)" d="M -784.62878 702.64508 L -735.02234 702.64508 L -735.02234 752.25153 L -784.62878 752.25153 Z"/>
</svg>
