<svg width="256" height="256" viewBox="0 0 256 256" xmlns="http://www.w3.org/2000/svg" xmlns:usvg="https://github.com/RazrFalcon/usvg" usvg:version="0.8.0">
    <path id="path32" fill="#69b53f" stroke="#ffffff" stroke-width="20" d="M 246 128 C 246 193.16960048003 193.16960048003 246 128 246 C 62.83039951997 246 10 193.16960048003 10 128 C 10 62.83039951997 62.83039951997 10 128 10 C 193.16960048003 10 246 62.83039951997 246 128 Z"/>
    <path id="path4193" fill="#f8f8f8" d="M 58.000005 63.000005 L 58.000005 153.00001 C 58.000005 174.97293 76.027085 193.00001 98.000005 193.00001 L 158.00001 193.00001 C 179.97293 193.00001 198.00001 174.97293 198.00001 153.00001 L 198.00001 103.00001 C 198.00001 86.549925 184.45009 73.000005 168.00001 73.000005 C 160.31507 73.000005 153.33323 76.037625 148.00001 80.866225 C 142.66679 76.037625 135.68495 73.000005 128.00001 73.000005 C 111.54993 73.000005 98.000005 86.549925 98.000005 103.00001 L 98.000005 153.00001 L 118.00001 153.00001 L 118.00001 103.00001 C 118.00001 97.358725 122.35873 93.000005 128.00001 93.000005 C 133.64129 93.000005 138.00001 97.358725 138.00001 103.00001 L 138.00001 153.00001 L 158.00001 153.00001 L 158.00001 103.00001 C 158.00001 97.358725 162.35873 93.000005 168.00001 93.000005 C 173.64129 93.000005 178.00001 97.358725 178.00001 103.00001 L 178.00001 153.00001 C 178.00001 164.16415 169.16415 173.00001 158.00001 173.00001 L 98.000005 173.00001 C 86.835865 173.00001 78.000005 164.16415 78.000005 153.00001 L 78.000005 63.000005 Z"/>
</svg>
