<svg width="299.72427" height="299.72427" viewBox="0 0 299.72427 299.72427" xmlns="http://www.w3.org/2000/svg" xmlns:usvg="https://github.com/RazrFalcon/usvg" usvg:version="0.8.0">
    <path id="Geeko" fill="#73ba25" fill-rule="evenodd" transform="matrix(1 0 0 1 -255.07493 -366.63417100000004)" d="M 523.71 467.88 C 520.3987 467.76074 517.2593 468.9306 514.8601 471.1808 C 512.4608 473.431 511.0454 476.4792 510.9454 479.7799 C 510.7157 486.6006 516.0562 492.3389 522.8614 492.5899 C 526.1709 492.6899 529.3261 491.5201 531.7394 489.2699 C 534.1492 487.0092 535.5347 483.9592 535.64 480.6708 C 535.8697 473.8518 530.531 468.1218 523.71 467.8798 Z M 525.7305 481.392 C 522.6998 481.392 520.2514 479.7522 520.2514 477.7422 C 520.2514 475.713 522.6998 474.0819 525.7305 474.0819 C 528.7611 474.0819 531.2165 475.713 531.2165 477.7422 C 531.2165 479.7521 528.7594 481.392 525.7305 481.392 Z M 554.5285 496.121 C 554.6172 496.0518 554.82371 495.86995 554.7968 495.70182 C 554.11209 491.42312 547.7376 470.67282 542.9128 465.68282 C 541.5834 464.32362 540.5188 462.98362 538.3633 461.72262 C 520.9093 451.55162 479.5003 445.41362 477.5603 445.13262 C 477.5603 445.13262 477.36557 445.09202 477.2306 445.22382 C 477.1258 445.32619 477.106 445.52373 477.106 445.52373 C 477.106 445.52373 476.9464 454.10353 476.9219 455.06293 C 472.6933 453.64233 441.9499 443.71193 413.1309 442.71193 C 388.6909 441.85254 353.0979 438.69213 305.9309 467.69193 L 304.5366 468.56008 C 282.3466 482.40108 267.0266 499.47008 259.0186 519.29908 C 256.507 525.53928 253.1291 539.61908 256.4772 552.86808 C 257.9189 558.65928 260.6076 564.47808 264.2328 569.68708 C 272.4268 581.45708 286.1768 589.26708 300.9818 590.58608 C 321.8858 592.45568 337.7148 583.06728 343.3448 565.48708 C 347.2156 553.35708 343.3448 535.55908 328.5058 526.48008 C 316.4358 519.08938 303.4568 520.76948 295.9278 525.75048 C 289.3965 530.08078 285.6978 536.81048 285.7628 544.20148 C 285.9136 557.31148 297.2068 564.27948 305.3268 564.30048 C 307.6857 564.30048 310.0552 563.89007 312.7263 563.02018 C 313.6769 562.73079 314.5713 562.37125 315.557 561.76088 L 315.8657 561.58024 L 316.0604 561.45046 L 315.9954 561.48906 C 317.8457 560.22806 318.9594 558.17776 318.9594 555.97846 C 318.9594 555.37865 318.8754 554.77006 318.7033 554.15796 C 317.744 550.83796 314.4643 548.82976 311.0653 549.44886 L 310.6058 549.5576 L 309.9849 549.74702 L 309.0834 550.05745 C 307.2138 550.51695 305.8142 550.55729 305.5143 550.56782 C 304.5637 550.50642 299.8897 549.10682 299.8897 543.98732 L 299.8897 543.91712 C 299.8897 542.03702 300.6439 540.71812 301.0595 539.99732 C 302.5135 537.71732 306.4947 535.47942 311.8735 535.94772 C 318.9328 536.55806 324.0225 540.17802 327.3935 547.00772 C 330.5224 553.35672 329.7033 561.16672 325.2836 566.88772 C 320.8937 572.55612 313.0786 574.96592 302.6856 573.84702 C 292.2046 572.68772 283.3456 566.65622 278.3826 557.26802 C 273.5261 548.09012 273.2613 537.20902 277.6968 528.85002 C 288.3058 508.82102 308.3458 509.03002 319.3338 510.92902 C 335.5938 513.74922 354.0918 528.74802 360.6528 546.06702 C 361.7121 548.82762 362.2523 551.01642 362.7241 553.01752 L 363.4326 556.00782 L 381.8026 564.97702 C 382.19718 565.16968 382.33056 565.2348 382.4884 565.11736 C 382.67781 564.97643 382.5694 564.5877 382.5694 564.5877 C 382.4554 564.1773 382.1888 563.79846 381.7644 558.6579 C 381.4153 554.0961 380.705 541.6069 386.9926 535.4179 C 389.434 532.9993 393.1539 530.8403 396.0916 530.1493 C 408.1316 527.2081 422.2506 529.2373 435.5986 544.6883 C 442.5088 552.6683 445.8776 556.3073 447.5686 557.9373 C 447.5686 557.9373 447.95354 558.30079 448.1579 558.46872 C 448.38121 558.65222 448.52668 558.80661 448.8524 558.98786 C 449.41026 559.29828 471.8064 569.60886 471.8064 569.60886 C 471.8064 569.60886 472.07174 569.74068 472.2676 569.49837 C 472.46122 569.25884 472.2776 569.01958 472.2776 569.01958 C 472.1285 568.84945 458.0786 550.69158 460.5796 535.74058 C 462.5492 523.83158 472.0266 524.91058 485.1376 526.39078 C 489.417 526.89062 494.2892 527.45008 499.3336 527.56238 C 513.4176 527.65188 528.5876 525.05088 537.9376 520.96088 C 543.9866 518.33188 547.8469 516.58148 550.2656 514.38218 C 551.1355 513.66134 551.5863 512.49148 552.0563 511.23228 L 552.386 510.40095 C 552.7771 509.38025 553.3524 507.22995 553.605 506.05135 C 553.7067 505.53221 553.8258 505.02395 553.3963 504.69215 C 553.00365 504.38878 552.1019 504.93241 552.1019 504.93241 C 547.9961 507.40361 537.7329 512.08291 528.1369 512.28281 C 516.2229 512.52308 492.0829 500.22181 489.5819 498.92281 C 487.908 494.93711 486.2361 490.95041 484.5381 486.97481 C 501.8081 498.35381 516.1321 504.64281 527.0971 505.61281 C 539.3041 506.70021 548.8201 500.04041 552.9501 497.26961 C 553.49074 496.91017 554.03 496.50777 554.5257 496.12101 Z M 505.5365 479.752 C 505.7118 475.0218 507.6919 470.632 511.1506 467.412 C 514.6109 464.1814 519.1253 462.5117 523.8586 462.6626 C 533.6188 463.01162 541.2886 471.2512 540.9536 481.0006 C 540.7695 485.7308 538.7894 490.1206 535.3395 493.3306 C 531.8792 496.5805 527.3753 498.2502 522.6205 498.0906 C 512.8708 497.73106 505.2095 489.5108 505.5365 479.7526 Z"/>
    <path id="path3" fill="#73ba25" transform="matrix(1.7539 0 0 1.7539 -947.07493 -533.104171)" d="M 667.46 415.23 C 668.678 415.23 669.648 416.22 669.648 417.459 C 669.648 418.716 668.677 419.696 667.45 419.696 C 666.232 419.696 665.242 418.716 665.242 417.459 C 665.242 416.221 666.232 415.23 667.45 415.23 Z M 667.45 415.576 C 666.47 415.576 665.668 416.418 665.668 417.458 C 665.668 418.518 666.47 419.349 667.46 419.349 C 668.45 419.36 669.242 418.518 669.242 417.468 C 669.242 416.418 668.45 415.576 667.46 415.576 Z M 667.034 418.755 L 666.638 418.755 L 666.638 416.27 C 666.846 416.24 667.044 416.21 667.341 416.21 C 667.718 416.21 667.965 416.289 668.113 416.398 C 668.262 416.506 668.342 416.674 668.342 416.913 C 668.342 417.239 668.124 417.437 667.857 417.517 L 667.857 417.538 C 668.075 417.577 668.223 417.775 668.273 418.142 C 668.333 418.529 668.391 418.677 668.431 418.756 L 668.015 418.756 C 667.955 418.677 667.896 418.449 667.847 418.122 C 667.787 417.806 667.629 417.686 667.312 417.686 L 667.035 417.686 L 667.035 418.755 Z M 667.034 417.378 L 667.321 417.378 C 667.648 417.378 667.925 417.26 667.925 416.952 C 667.925 416.734 667.767 416.516 667.321 416.516 C 667.192 416.516 667.103 416.526 667.034 416.537 Z"/>
</svg>
