<svg width="231" height="231" viewBox="0 0 231 231" preserveAspectRatio="xMinYMid" xmlns="http://www.w3.org/2000/svg" xmlns:usvg="https://github.com/RazrFalcon/usvg" usvg:version="0.8.0">
    <path id="path2" fill="#c74634" transform="matrix(1 0 0 1 0.32772714999999997 100.48721)" d="M 99.61 19.52 L 114.85 19.52 L 106.8 6.52 L 92 30 L 85.27 30 L 103.27 1.83 C 104.06622 0.68936964 105.36607 0.00560182 106.75708 -0.00433396 C 108.14809 -0.01426974 109.45757 0.65086003 110.27 1.78 L 128.32 30 L 121.59 30 L 118.42 24.75 L 103 24.75 L 99.64 19.52 M 169.57 24.75 L 169.57 0.28 L 163.85 0.28 L 163.85 27.16 C 163.848 27.914853 164.15509 28.637621 164.7 29.16 C 165.24695 29.719644 165.99747 30.033564 166.78 30.03 L 192.78 30.03 L 196.17 24.78 L 169.54 24.78 M 75 20.38 C 80.550462 20.38 85.05 15.880462 85.05 10.33 C 85.05 4.7795383 80.550462 0.28 75 0.28 L 50 0.28 L 50 30 L 55.71 30 L 55.71 5.54 L 74.65 5.54 C 77.30649 5.54 79.46 7.6935104 79.46 10.35 C 79.46 13.00649 77.30649 15.16 74.65 15.16 L 58.54 15.16 L 75.6 30 L 83.89 30 L 72.43 20.38 L 75 20.38 M 14.88 30 L 32.15 30 C 40.204096 29.791014 46.624546 23.201806 46.624546 15.145 C 46.624546 7.0881935 40.204096 0.4989859 32.15 0.29 L 14.88 0.29 C 9.4809269 0.14990604 4.4309281 2.9502135 1.6901382 7.6039956 C -1.0506518 12.257778 -1.0506518 18.032222 1.6901382 22.686004 C 4.4309281 27.339786 9.4809269 30.140094 14.88 30 M 31.76 24.77 L 15.26 24.77 C 10.07045 24.602617 5.9501209 20.347249 5.9501209 15.155 C 5.9501209 9.962751 10.07045 5.7073831 15.26 5.54 L 31.76 5.54 C 35.269054 5.4268194 38.561094 7.2342716 40.349109 10.25574 C 42.137125 13.277208 42.137125 17.032792 40.349109 20.05426 C 38.561094 23.075728 35.269054 24.883181 31.76 24.77 M 140.25 30 L 157.88 30 L 161.22 24.77 L 140.64 24.77 C 137.13095 24.883181 133.83891 23.075728 132.05089 20.05426 C 130.26288 17.032792 130.26288 13.277208 132.05089 10.25574 C 133.83891 7.2342716 137.13095 5.4268194 140.64 5.54 L 157.39 5.54 L 160.77 0.29 L 140.25 0.29 C 134.85093 0.14990604 129.80093 2.9502135 127.06014 7.6039956 C 124.31935 12.257778 124.31935 18.032222 127.06014 22.686004 C 129.80093 27.339786 134.85093 30.140094 140.25 30 M 210.12 24.77 C 205.81471 24.7716 202.03254 21.912545 200.86 17.77 L 225.28 17.77 L 228.64 12.53 L 200.86 12.53 C 202.02959 8.3854374 205.81357 5.5249746 210.12 5.53 L 226.88 5.53 L 230.23 0.28 L 209.73 0.28 C 201.6759 0.4889859 195.25545 7.0781935 195.25545 15.135 C 195.25545 23.191806 201.6759 29.781014 209.73 29.99 L 227.36 29.99 L 230.71 24.76 L 210.11 24.76"/>
</svg>
