<svg width="61.028259" height="59.731277" viewBox="0 0 61.028259 59.731277" xmlns="http://www.w3.org/2000/svg" xmlns:usvg="https://github.com/RazrFalcon/usvg" usvg:version="0.8.0">
    <path id="path22" fill="#86da2f" d="M 56.11382 33.731278 C 58.71382 33.531278 60.81382 35.231278 61.01382 37.831278 C 61.21382 40.531278 59.31382 42.731278 56.71382 42.931278 C 54.21382 43.131278 52.01382 41.231278 51.81382 38.731278 C 51.61382 36.031278 53.41382 34.031278 56.11382 33.731278 Z"/>
    <path id="path24" fill="#24c2ff" d="M 24.51382 55.031278 C 24.51382 52.431278 26.51382 50.431278 28.91382 50.431278 C 31.31382 50.431278 33.61382 52.631278 33.61382 55.131278 C 33.61382 57.531278 31.61382 59.631278 29.31382 59.731278 C 26.41382 59.731278 24.51382 57.931278 24.51382 55.031278 Z"/>
    <path id="path26" fill="#ffcb12" d="M 31.61382 25.831278 C 31.21382 26.031278 31.01382 25.731278 30.91382 25.431278 C 27.21382 18.531278 28.31382 9.8312776 34.81382 4.6312776 C 36.51382 3.2312776 39.71382 2.9312776 41.11382 4.3312776 C 41.71382 4.8312776 41.81382 5.4312776 41.91382 6.1312776 C 42.11382 7.6312776 42.41382 9.1312776 43.41382 10.331278 C 44.51382 11.631278 45.91382 12.131278 47.51382 12.031278 C 48.91382 12.031278 50.31382 11.831278 51.21382 13.431278 C 51.71382 14.331278 51.51382 17.831278 50.71382 18.531278 C 50.31382 18.831278 50.01382 18.631278 49.71382 18.531278 C 47.41382 17.631278 45.01382 17.631278 42.61382 18.031278 C 41.81382 18.131278 41.41382 17.931278 41.41382 17.031278 C 41.31382 15.531278 41.01382 14.131278 40.21382 12.831278 C 38.71382 10.131278 35.91382 10.031278 34.11382 12.531278 C 32.61382 14.531278 32.21382 16.931278 31.81382 19.331278 C 31.41382 21.431278 31.51382 23.631278 31.61382 25.831278 C 31.61382 25.831278 31.51382 25.831278 31.61382 25.831278 Z"/>
    <path id="path28" fill="#86da2f" d="M 34.11382 27.331278 C 33.91382 27.031278 34.01382 26.731278 34.31382 26.531278 C 40.01382 21.331278 48.51382 20.331278 55.11382 25.431278 C 56.81382 26.831278 57.91382 29.731278 57.01382 31.431278 C 56.61382 32.131278 56.11382 32.431278 55.51382 32.631278 C 54.11382 33.231278 52.81382 33.831278 51.91382 35.131278 C 51.01382 36.431278 50.81382 37.931278 51.21382 39.531278 C 51.51382 40.831278 52.01382 42.231278 50.71382 43.431278 C 50.01382 44.131278 46.61382 44.731278 45.71382 44.131278 C 45.31382 43.831278 45.41382 43.531278 45.51382 43.131278 C 45.81382 40.631278 45.21382 38.331278 44.31382 36.131278 C 44.01382 35.331278 44.11382 34.931278 44.91382 34.731278 C 46.31382 34.331278 47.61382 33.631278 48.61382 32.631278 C 50.81382 30.531278 50.31382 27.831278 47.41382 26.631278 C 45.11382 25.631278 42.71382 25.831278 40.41382 26.031278 C 38.21382 26.131278 36.11382 26.731278 34.11382 27.331278 Z"/>
    <path id="path30" fill="#24c2ff" d="M 32.81382 29.931278 C 33.11382 29.631278 33.31382 29.731278 33.61382 29.931278 C 40.21382 33.931278 43.61382 41.831278 40.61382 49.531278 C 39.81382 51.531278 37.21382 53.531278 35.31382 53.031278 C 34.51382 52.831278 34.11382 52.431278 33.71382 51.931278 C 32.81382 50.731278 31.81382 49.631278 30.31382 49.131278 C 28.71382 48.631278 27.31382 48.931278 25.91382 49.731278 C 24.71382 50.431278 23.51382 51.331278 22.01382 50.431278 C 21.11382 49.931278 19.61382 46.831278 19.91382 45.831278 C 20.11382 45.431278 20.51382 45.431278 20.91382 45.431278 C 23.41382 45.031278 25.41382 43.831278 27.31382 42.231278 C 27.91382 41.731278 28.41382 41.731278 28.91382 42.431278 C 29.71382 43.631278 30.71382 44.631278 32.01382 45.331278 C 34.61382 46.831278 37.11382 45.531278 37.41382 42.531278 C 37.71382 40.031278 36.81382 37.831278 36.01382 35.631278 C 35.11382 33.631278 34.01382 31.731278 32.81382 29.931278 Z"/>
    <path id="path32" fill="#0069da" d="M 29.61382 30.531278 C 29.21382 32.531278 28.31382 34.431278 27.11382 36.131278 C 23.51382 41.531278 18.31382 43.731278 11.91382 43.131278 C 9.6138203 42.931278 7.7138203 41.031278 7.5138203 39.131278 C 7.4138203 38.331278 7.6138203 37.731278 8.1138203 37.131278 C 8.8138203 36.231278 9.4138203 35.431278 9.7138203 34.331278 C 10.31382 32.131278 9.5138203 30.331278 7.9138203 28.731278 C 5.7138203 26.531278 6.0138203 24.531278 8.6138203 22.931278 C 8.9138203 22.731278 9.3138203 22.531278 9.7138203 22.331278 C 10.31382 22.031278 10.81382 22.031278 11.01382 22.731278 C 11.91382 25.031278 13.71382 26.731278 15.71382 28.131278 C 16.41382 28.731278 16.41382 29.131278 15.81382 29.831278 C 14.61382 31.131278 13.91382 32.731278 13.81382 34.531278 C 13.61382 36.731278 14.91382 38.131278 17.11382 38.131278 C 18.51382 38.131278 19.81382 37.631278 21.01382 37.031278 C 24.11382 35.431278 26.51382 33.131278 28.81382 30.731278 C 29.11382 30.631278 29.21382 30.431278 29.61382 30.531278 Z"/>
    <path id="path34" fill="#ff4649" d="M 13.21382 9.5312776 C 13.41382 9.5312776 13.91382 9.6312776 14.41382 9.7312776 C 18.11382 10.431278 20.41382 9.1312776 21.61382 5.6312776 C 22.41382 3.3312776 24.11382 2.6312776 26.31382 3.8312776 C 26.41382 3.8312776 26.41382 3.9312776 26.51382 3.9312776 C 28.81382 5.2312776 28.81382 5.4312776 27.41382 7.4312776 C 26.21382 9.0312776 25.61382 10.831278 25.31382 12.731278 C 25.11382 13.831278 24.71382 14.031278 23.71382 13.631278 C 22.11382 13.031278 20.41382 13.031278 18.71382 13.631278 C 16.81382 14.231278 16.01382 15.931278 16.61382 17.831278 C 17.41382 20.331278 19.61382 21.431278 21.51382 22.731278 C 23.41382 24.031278 25.61382 24.731278 27.71382 25.631278 C 28.01382 25.731278 28.51382 25.731278 28.41382 26.231278 C 28.31382 26.531278 27.91382 26.531278 27.51382 26.531278 C 23.01382 26.731278 18.71382 26.031278 15.21382 23.031278 C 11.91382 20.331278 9.5138203 17.031278 9.9138203 12.431278 C 10.21382 10.931278 11.31382 9.8312776 13.21382 9.5312776 Z"/>
    <path id="path36" fill="#0069da" d="M 5.0138203 37.631278 C 2.6138203 37.931278 0.21382027 35.931278 0.01382027 33.431278 C -0.18617973 31.031278 1.8138203 28.631278 4.1138203 28.431278 C 6.7138203 28.131278 9.1138203 29.931278 9.3138203 32.331278 C 9.4138203 34.631278 7.9138203 37.431278 5.0138203 37.631278 Z"/>
    <path id="path38" fill="#ffcb12" d="M 47.01382 2.0312776 C 49.51382 1.8312776 51.91382 3.8312776 52.11382 6.3312776 C 52.31382 8.7312776 50.31382 11.031278 47.91382 11.231278 C 45.31382 11.431278 43.01382 9.5312776 42.81382 7.0312776 C 42.61382 4.5312776 44.41382 2.2312776 47.01382 2.0312776 Z"/>
    <path id="path40" fill="#ff4649" d="M 20.91382 3.9312776 C 21.21382 6.5312776 19.41382 8.7312776 16.71382 9.1312776 C 14.41382 9.4312776 12.01382 7.5312776 11.71382 5.3312776 C 11.41382 2.4312776 13.01382 0.33127764 15.71382 0.03127764 C 18.21382 -0.26872236 20.61382 1.6312776 20.91382 3.9312776 Z"/>
</svg>
