<svg width="300" height="300" viewBox="0 0 300 300" xmlns="http://www.w3.org/2000/svg" xmlns:usvg="https://github.com/RazrFalcon/usvg" usvg:version="0.8.0">
  <style>
    @media (prefers-color-scheme: dark) {
    #aws { fill: #ffffff; }
  }
  </style>
    <path id="aws" fill="#252f3e" transform="matrix(1 0 0 1 -2.0034614 59)" d="M 86.4 66.4 C 86.4 70.1 86.8 73.1 87.5 75.3 C 88.3 77.5 89.3 79.9 90.7 82.5 C 91.2 83.3 91.4 84.1 91.4 84.8 C 91.4 85.8 90.8 86.8 89.5 87.8 L 83.2 92 C 82.3 92.6 81.4 92.9 80.6 92.9 C 79.6 92.9 78.6 92.4 77.6 91.5 C 76.2 90 75 88.4 74 86.8 C 73 85.1 72 83.2 70.9 80.9 C 63.1 90.1 53.3 94.7 41.5 94.7 C 33.1 94.7 26.4 92.3 21.5 87.5 C 16.6 82.7 14.1 76.3 14.1 68.3 C 14.1 59.8 17.1 52.9 23.2 47.7 C 29.3 42.5 37.4 39.9 47.7 39.9 C 51.1 39.9 54.6 40.2 58.3 40.7 C 62 41.2 65.8 42 69.8 42.9 L 69.8 35.6 C 69.8 28 68.2 22.7 65.1 19.6 C 61.9 16.5 56.5 15 48.8 15 C 45.3 15 41.7 15.4 38 16.3 C 34.3 17.2 30.7 18.3 27.2 19.7 C 25.6 20.4 24.4 20.8 23.7 21 C 23 21.2 22.5 21.3 22.1 21.3 C 20.7 21.3 20 20.3 20 18.2 L 20 13.3 C 20 11.7 20.2 10.5 20.7 9.8 C 21.2 9.1 22.1 8.4 23.5 7.7 C 27 5.9 31.2 4.4 36.1 3.2 C 41 1.9 46.2 1.3 51.7 1.3 C 63.6 1.3 72.3 4 77.9 9.4 C 83.4 14.8 86.2 23 86.2 34 L 86.2 66.4 Z M 45.8 81.6 C 49.1 81.6 52.5 81 56.1 79.8 C 59.7 78.6 62.9 76.4 65.6 73.4 C 67.2 71.5 68.4 69.4 69 67 C 69.6 64.6 70 61.7 70 58.3 L 70 54.1 C 67.1 53.4 64 52.8 60.8 52.4 C 57.6 52 54.5 51.8 51.4 51.8 C 44.7 51.8 39.8 53.1 36.5 55.8 C 33.2 58.5 31.6 62.3 31.6 67.3 C 31.6 72 32.8 75.5 35.3 77.9 C 37.7 80.4 41.2 81.6 45.8 81.6 Z M 126.1 92.4 C 124.3 92.4 123.1 92.1 122.3 91.4 C 121.5 90.8 120.8 89.4 120.2 87.5 L 96.7 10.2 C 96.1 8.2 95.8 6.9 95.8 6.2 C 95.8 4.6 96.6 3.7 98.2 3.7 L 108 3.7 C 109.9 3.7 111.2 4 111.9 4.7 C 112.7 5.3 113.3 6.7 113.9 8.6 L 130.7 74.8 L 146.3 8.6 C 146.8 6.6 147.4 5.3 148.2 4.7 C 149 4.1 150.4 3.7 152.2 3.7 L 160.2 3.7 C 162.1 3.7 163.4 4 164.2 4.7 C 165 5.3 165.7 6.7 166.1 8.6 L 181.9 75.6 L 199.2 8.6 C 199.8 6.6 200.5 5.3 201.2 4.7 C 202 4.1 203.3 3.7 205.1 3.7 L 214.4 3.7 C 216 3.7 216.9 4.5 216.9 6.2 C 216.9 6.7 216.8 7.2 216.7 7.8 C 216.6 8.4 216.4 9.2 216 10.3 L 191.9 87.6 C 191.3 89.6 190.6 90.9 189.8 91.5 C 189 92.1 187.7 92.5 186 92.5 L 177.4 92.5 C 175.5 92.5 174.2 92.2 173.4 91.5 C 172.6 90.8 171.9 89.5 171.5 87.5 L 156 23 L 140.6 87.4 C 140.1 89.4 139.5 90.7 138.7 91.4 C 137.9 92.1 136.5 92.4 134.7 92.4 Z M 254.6 95.1 C 249.4 95.1 244.2 94.5 239.2 93.3 C 234.2 92.1 230.3 90.8 227.7 89.3 C 226.1 88.4 225 87.4 224.6 86.5 C 224.2 85.6 224 84.6 224 83.7 L 224 78.6 C 224 76.5 224.8 75.5 226.3 75.5 C 226.9 75.5 227.5 75.6 228.1 75.8 C 228.7 76 229.6 76.4 230.6 76.8 C 234 78.3 237.7 79.5 241.6 80.3 C 245.6 81.1 249.5 81.5 253.5 81.5 C 259.8 81.5 264.7 80.4 268.1 78.2 C 271.5 76 273.3 72.8 273.3 68.7 C 273.3 65.9 272.4 63.6 270.6 61.7 C 268.8 59.8 265.4 58.1 260.5 56.5 L 246 52 C 238.7 49.7 233.3 46.3 230 41.8 C 226.7 37.4 225 32.5 225 27.3 C 225 23.1 225.9 19.4 227.7 16.2 C 229.5 13 231.9 10.2 234.9 8 C 237.9 5.7 241.3 4 245.3 2.8 C 249.3 1.6 253.5 1.1 257.9 1.1 C 260.1 1.1 262.4 1.2 264.6 1.5 C 266.9 1.8 269 2.2 271.1 2.6 C 273.1 3.1 275 3.6 276.8 4.2 C 278.6 4.8 280 5.4 281 6 C 282.4 6.8 283.4 7.6 284 8.5 C 284.6 9.3 284.9 10.4 284.9 11.8 L 284.9 16.5 C 284.9 18.6 284.1 19.7 282.6 19.7 C 281.8 19.7 280.5 19.3 278.8 18.5 C 273.1 15.9 266.7 14.6 259.6 14.6 C 253.9 14.6 249.4 15.5 246.3 17.4 C 243.2 19.3 241.6 22.2 241.6 26.3 C 241.6 29.1 242.6 31.5 244.6 33.4 C 246.6 35.3 250.3 37.2 255.6 38.9 L 269.8 43.4 C 277 45.7 282.2 48.9 285.3 53 C 288.4 57.1 289.9 61.8 289.9 67 C 289.9 71.3 289 75.2 287.3 78.6 C 285.5 82 283.1 85 280 87.4 C 276.9 89.9 273.2 91.7 268.9 93 C 264.4 94.4 259.7 95.1 254.6 95.1 Z"/>
    <path id="path6" fill="#ff9900" fill-rule="evenodd" transform="matrix(1 0 0 1 -2.0034614 59)" d="M 273.5 143.7 C 240.6 168 192.8 180.9 151.7 180.9 C 94.1 180.9 42.2 159.6 3 124.2 C -0.1 121.4 2.7 117.6 6.4 119.8 C 48.8 144.4 101.1 159.3 155.2 159.3 C 191.7 159.3 231.8 151.7 268.7 136.1 C 274.2 133.6 278.9 139.7 273.5 143.7 Z"/>
    <path id="path8" fill="#ff9900" fill-rule="evenodd" transform="matrix(1 0 0 1 -2.0034614 59)" d="M 287.2 128.1 C 283 122.7 259.4 125.5 248.7 126.8 C 245.5 127.2 245 124.4 247.9 122.3 C 266.7 109.1 297.6 112.9 301.2 117.3 C 304.8 121.8 300.2 152.7 282.6 167.5 C 279.9 169.8 277.3 168.6 278.5 165.6 C 282.5 155.7 291.4 133.4 287.2 128.1 Z"/>
</svg>
