<svg width="65" height="65" viewBox="0 0 65 65" xmlns="http://www.w3.org/2000/svg" xmlns:usvg="https://github.com/RazrFalcon/usvg" usvg:version="0.8.0">
    <defs>
        <linearGradient id="lg" x1="0.54638" y1="0.26924" x2="0.28129000000000004" y2="0.7951900000000001">
            <stop offset="0" stop-color="#ffffff" stop-opacity="0"/>
            <stop offset="1" stop-color="#ffffff" stop-opacity="0.27451"/>
        </linearGradient>
    </defs>
    <path fill="#1793d1" d="M 32.253 0.20991 C 29.404 7.19421 27.674 11.76891 24.503 18.54591 C 26.447 20.60691 28.837 22.99891 32.714 25.70991 C 28.546 23.99491 25.705 22.27791 23.581 20.49091 C 19.522 28.96091 13.158 41.02191 0.253 64.20991 C 10.393 58.35591 18.255 54.74391 25.581 53.36591 C 25.267 52.01491 25.1 50.54691 25.112 49.02191 L 25.12 48.70191 C 25.281 42.20391 28.662 37.20691 32.667 37.54591 C 36.671 37.88491 39.789 43.42991 39.628 49.92891 C 39.597 51.15291 39.455 52.32891 39.214 53.42091 C 46.461 54.83891 54.248 58.43391 64.253 64.20991 C 62.28 60.57791 60.513 57.30491 58.831 54.18591 C 56.182 52.13291 53.42 49.46191 47.784 46.56891 C 51.658 47.57591 54.434 48.73991 56.596 50.03791 C 39.498 18.20291 38.116 13.96991 32.253 0.20991 L 32.253 0.20982 Z"/>
    <path id="path2522" fill="#ffffff" fill-opacity="0.16568" d="M 50.266 38.249 C 36.394 19.422 33.179 4.247 32.364 0.624 C 39.764 17.691 39.713 17.901 50.266 38.249 Z"/>
    <path fill="url(#lg)" d="M 32.378 0.45992 C 32.018 1.3444 31.678 2.20672 31.346 3.02242 C 30.982 3.91702 30.628 4.77892 30.284 5.61622 C 29.94 6.45352 29.591 7.24712 29.253 8.05372 C 28.914 8.86022 28.599 9.65762 28.253 10.46002 C 27.907 11.26202 27.527 12.07302 27.159 12.89702 C 26.791 13.72202 26.407 14.55502 26.003 15.42902 C 25.599 16.30202 25.175 17.23002 24.721 18.17902 C 24.66 18.30702 24.597 18.45502 24.534 18.58502 C 26.473 20.63902 28.864 23.01202 32.721 25.71002 C 28.554 23.99502 25.721 22.27802 23.596 20.49102 C 23.486 20.71702 23.398 20.91602 23.284 21.14702 C 22.864 22.01802 22.413 22.88002 21.94 23.83502 C 21.827 24.05902 21.744 24.26202 21.628 24.49102 C 21.127 25.49502 20.602 26.53402 20.034 27.64702 C 19.921 27.86702 19.806 28.04902 19.69 28.27202 C 19.347 28.93902 18.25 31.04202 17.128 33.17902 C 16.473 34.42702 15.959 35.44902 15.221 36.83502 C 15.012 37.23302 14.582 38.03002 14.471 38.24102 C 22.596 33.66802 31.362 27.02502 47.284 32.71002 C 46.487 31.20002 45.722 29.79102 45.034 28.46002 C 44.346 27.12802 43.722 25.88902 43.128 24.71002 C 42.534 23.53102 41.985 22.41902 41.471 21.36602 C 40.958 20.31302 40.482 19.31902 40.034 18.36602 C 39.586 17.41302 39.149 16.49602 38.753 15.61602 C 38.356 14.73702 37.987 13.88602 37.628 13.05402 C 37.269 12.22102 36.933 11.39602 36.596 10.58502 C 36.26 9.77352 35.924 8.99542 35.596 8.17872 C 35.454 7.82332 35.333 7.44492 35.19 7.08492 C 34.302 5.00002 33.431 2.93342 32.378 0.45992 L 32.378 0.45994 Z"/>
</svg>
