<svg width="1096.3575" height="1096.3575" viewBox="0 0 290.07793 290.07794" xmlns="http://www.w3.org/2000/svg" xmlns:usvg="https://github.com/RazrFalcon/usvg" usvg:version="0.8.0">
  <style>
    @media (prefers-color-scheme: dark) {
    #path170, #path174, #path178, #path182 { fill: #ffffff; }
    #path186 { fill: #00b5e2; }
  }
  </style>

    <path id="path170" fill="#43b0e8" transform="matrix(7.6363222 0 0 -7.6363222 145.037436 151.42218)" d="M 0 0 C -1.424 0 -2.583 -1.159 -2.583 -2.583 C -2.583 -4.007 -1.424 -5.166 0 -5.166 C 1.424 -5.166 2.583 -4.007 2.583 -2.583 C 2.583 -1.159 1.424 0 0 0"/>
    <path id="path174" fill="#43b0e8" transform="matrix(7.6363222 0 0 -7.6363222 24.075806 50.18591)" d="M 0 0 L 2.685 -2.685 C 6.055 0.686 10.708 2.773 15.84 2.773 C 20.972 2.773 25.625 0.686 28.996 -2.685 L 31.681 0 C 27.623 4.058 22.019 6.572 15.84 6.572 C 9.662 6.572 4.059 4.058 0 0"/>
    <path id="path178" fill="#43b0e8" transform="matrix(7.6363222 0 0 -7.6363222 60.982154 87.089208)" d="M 0 0 L 2.685 -2.685 C 4.817 -0.553 7.761 0.768 11.007 0.768 C 14.254 0.768 17.198 -0.553 19.33 -2.685 L 22.015 0 C 19.195 2.82 15.301 4.567 11.007 4.567 C 6.713 4.567 2.82 2.82 0 0"/>
    <path id="path182" fill="#43b0e8" transform="matrix(7.6363222 0 0 -7.6363222 97.884678 123.99326)" d="M 0 0 L 2.685 -2.685 C 3.579 -1.791 4.813 -1.237 6.175 -1.237 C 7.537 -1.237 8.771 -1.791 9.665 -2.685 L 12.35 0 C 10.768 1.582 8.583 2.562 6.175 2.562 C 3.766 2.562 1.582 1.582 0 0"/>
    <path id="path186" fill="#072342" transform="matrix(7.6363222 0 0 -7.6363222 217.679496 118.23014)" d="M 0 0 C 1.421 -1.946 2.263 -4.341 2.263 -6.93 C 2.263 -13.423 -3.02 -18.705 -9.513 -18.705 C -16.006 -18.705 -21.289 -13.423 -21.289 -6.93 C -21.289 -4.341 -20.447 -1.946 -19.025 0 L -21.733 2.708 C -23.831 0.054 -25.087 -3.293 -25.087 -6.93 C -25.087 -15.517 -18.101 -22.504 -9.513 -22.504 C -0.925 -22.504 6.062 -15.517 6.062 -6.93 C 6.062 -3.293 4.805 0.054 2.708 2.708 Z"/>
</svg>
