<svg width="164.61415181102365" height="164.61415181102365" viewBox="0 0 43.554161 43.554161" xmlns="http://www.w3.org/2000/svg" xmlns:usvg="https://github.com/RazrFalcon/usvg" usvg:version="0.8.0">
    <path id="path936" fill="#ffffff" transform="matrix(1 0 0 1 -86.841798 -73.61297420000001)" d="M 117.45082 86.932815 C 117.45082 86.877875 117.65918 86.669514 117.91384 86.469795 C 118.33349 86.140687 118.34285 86.150045 118.01374 86.569685 C 117.6681 87.010414 117.45082 87.150572 117.45082 86.932811 Z"/>
    <path id="path934" fill="#ffffff" transform="matrix(1 0 0 1 -86.841798 -73.61297420000001)" d="M 130.03554 108.8061 C 129.89196 108.42902 129.92235 108.39863 130.18366 108.65799 C 130.36448 108.83746 130.44577 109.05096 130.36431 109.13242 C 130.28281 109.21392 130.1349 109.06702 130.03554 108.8061 Z M 103.73427 99.997293 C 103.73427 99.633491 103.79437 99.484663 103.86772 99.666564 C 103.94112 99.848465 103.94112 100.14612 103.86772 100.32802 C 103.79432 100.50992 103.73427 100.36112 103.73427 99.997293 Z M 116.41338 99.842953 C 116.42608 99.534729 116.48878 99.472034 116.57323 99.683101 C 116.64963 99.874097 116.64023 100.1023 116.55233 100.19022 C 116.46443 100.27812 116.40188 100.12192 116.41337 99.842953 Z"/>
    <path id="path932" fill="#ffffff" transform="matrix(1 0 0 1 -86.841798 -73.61297420000001)" d="M 108.66996 105.3728 C 108.86096 105.2964 109.08916 105.3058 109.17708 105.3937 C 109.26498 105.4816 109.10868 105.54415 108.82982 105.53266 C 108.52159 105.51996 108.4589 105.45726 108.66996 105.37281 Z M 99.310219 91.199898 L 98.533114 90.340002 L 99.39301 91.117107 C 100.19455 91.841478 100.37452 92.059793 100.17012 92.059793 C 100.12462 92.059793 99.737627 91.67284 99.310219 91.199898 Z"/>
    <path id="path930" fill="#ffffff" transform="matrix(1 0 0 1 -86.841798 -73.61297420000001)" d="M 127.76957 108.74654 C 125.72043 108.06681 124.43467 107.48241 123.22048 106.67889 C 122.64318 106.29686 121.4958 105.83204 120.67073 105.64597 C 119.84567 105.45989 118.39671 105.11435 117.45082 104.8781 C 115.84873 104.47795 115.56807 104.48002 113.34978 104.9084 C 109.10381 105.72845 106.38242 105.38593 104.83295 103.83645 C 104.35122 103.35472 103.95707 102.7877 103.95707 102.57641 C 103.95707 102.28162 103.41842 102.15626 101.64197 102.03759 C 100.36866 101.95259 98.834192 101.70678 98.232036 101.49146 C 97.151882 101.10522 97.119928 101.11161 95.847797 101.96831 C 93.395574 103.61974 86.09931 107.68336 86.903338 106.94989 C 87.346441 106.54568 88.968624 105.12301 90.50819 103.78841 C 93.089181 101.55104 93.32089 101.27191 93.480446 100.20792 C 93.687013 98.830434 94.526438 97.35141 95.101668 97.35141 C 95.328703 97.35141 95.803401 97.640353 96.156553 97.993505 C 96.509706 98.346657 97.069841 98.674079 97.401298 98.721109 C 97.840327 98.783399 98.027247 99.010061 98.089763 99.555942 C 98.202866 100.54352 99.419338 101.05692 101.63347 101.05152 C 103.91723 101.04552 104.06639 100.91333 103.83867 99.090757 C 103.55941 96.855628 101.9502 93.887204 99.74022 91.530577 C 97.552459 89.19764 97.412403 88.75347 98.928666 88.956843 C 99.938661 89.092312 99.978576 89.070324 99.826025 88.462514 C 99.636901 87.708984 99.947132 87.654699 101.08371 88.242444 C 101.86284 88.645352 101.88274 88.641178 101.7142 88.110153 C 101.47753 87.364498 101.82174 87.420914 103.03687 88.326944 C 103.60126 88.747758 104.20759 89.036587 104.38427 88.968786 C 105.08634 88.699377 106.83327 92.591003 106.909 94.593112 C 106.9329 95.225338 107.04881 95.68308 107.16654 95.610319 C 107.50753 95.399572 108.34861 92.310932 109.49895 87.045185 C 110.08555 84.359938 110.73159 81.996831 110.93459 81.793835 C 111.22185 81.506575 111.42782 81.491198 111.86371 81.724475 C 112.55952 82.096865 112.56298 81.982497 111.74577 85.62617 C 110.7518 90.057962 111.06796 90.414064 112.3792 86.33963 C 113.44627 83.023909 114.17555 81.748852 114.78832 82.127566 C 115.43772 82.52892 114.81472 85.483074 113.34023 88.994294 C 113.19925 89.330001 113.22248 89.442058 113.40913 89.326707 C 113.56399 89.230997 114.13509 88.005754 114.67825 86.603939 C 115.71863 83.918853 116.38175 82.974865 117.04796 83.230511 C 117.74815 83.499199 117.49761 84.971033 116.37698 87.172265 L 115.30313 89.281619 L 117.0119 87.595776 C 118.65807 85.971695 118.73187 85.930865 119.02645 86.481291 C 119.45776 87.287194 119.19136 87.882541 117.84354 89.124926 L 116.66891 90.207661 L 117.45674 90.207661 C 118.43336 90.207661 118.49528 90.765809 117.59703 91.472366 C 117.09272 91.869063 117.01956 92.052794 117.2663 92.303011 C 117.51314 92.553324 117.40161 92.787361 116.76141 93.362508 C 116.30947 93.768525 115.86071 94.415408 115.76418 94.800025 C 115.66768 95.184641 115.48838 95.499328 115.36582 95.499328 C 115.24325 95.499328 115.19556 95.774459 115.25984 96.110732 C 115.32804 96.467313 115.20244 96.866774 114.95857 97.06917 C 114.72859 97.260039 114.54042 97.699282 114.54042 98.045266 C 114.54042 98.39125 114.4325 98.674328 114.3006 98.674328 C 114.16871 98.674328 114.12003 98.900862 114.19243 99.177738 C 114.28293 99.523807 114.0717 99.867741 113.5166 100.27815 C 113.07248 100.6065 112.77099 100.97527 112.84663 101.09765 C 113.10442 101.51477 113.90598 101.32122 115.12659 100.54713 L 116.34553 99.7741 L 116.50175 100.39651 C 116.61554 100.8499 117.03448 101.15938 118.04444 101.53613 L 119.43092 102.05333 L 118.40065 102.4838 C 117.83401 102.72056 116.91588 102.98695 116.36037 103.07578 C 114.80299 103.32482 115.40358 104.06556 117.50565 104.4883 C 118.42139 104.67247 119.68755 104.98976 120.31934 105.19341 C 120.95114 105.39706 122.16154 105.60295 123.00912 105.65096 C 124.56789 105.73926 127.63682 106.97439 129.37806 108.21426 C 130.90674 109.30278 130.17576 109.54465 127.76958 108.74649 Z"/>
</svg>
