<svg width="1600" height="1600" viewBox="0 0 1600 1600" xmlns="http://www.w3.org/2000/svg" xmlns:usvg="https://github.com/RazrFalcon/usvg" usvg:version="0.8.0">
    <path id="rect6" fill="#e9500e" transform="matrix(1 0 0 1 280.54755 0)" d="M 0 0 L 1038.9049 0 L 1038.9049 1600 L 0 1600 Z"/>
    <path id="circle8" fill="#ffffff" transform="matrix(1 0 0 1 280.54755 0)" d="M 335.61531 1056.0741 C 335.61531 1116.288 286.80228 1165.1011 226.58835 1165.1011 C 166.37442 1165.1011 117.56139 1116.288 117.56139 1056.0741 C 117.56139 995.86018 166.37442 947.04715 226.58835 947.04715 C 286.80228 947.04715 335.61531 995.86018 335.61531 1056.0741 Z"/>
    <path id="circle10" fill="#ffffff" transform="matrix(1 0 0 1 280.54755 0)" d="M 789.67205 817.00695 C 789.67205 877.22088 740.85902 926.03391 680.64509 926.03391 C 620.43116 926.03391 571.61813 877.22088 571.61813 817.00695 C 571.61813 756.79302 620.43116 707.97999 680.64509 707.97999 C 740.85902 707.97999 789.67205 756.79302 789.67205 817.00695 Z"/>
    <path id="path12" fill="#ffffff" transform="matrix(1 0 0 1 280.54755 0)" d="M 472.48179 1336.6657 C 394.44668 1320.1653 327.96264 1269.4597 291.41058 1198.5675 C 262.2356 1211.8127 229.70566 1215.8113 198.19147 1210.0259 C 242.45353 1319.4686 338.23372 1399.7415 453.72868 1424.1904 C 479.17047 1429.6422 505.12929 1432.3135 531.14816 1432.1574 C 511.13271 1405.9143 499.95611 1373.9994 499.2258 1341.0027 C 490.24607 1340.0052 481.27719 1338.548 472.48179 1336.6657 Z"/>
    <path id="circle14" fill="#ffffff" transform="matrix(1 0 0 1 280.54755 0)" d="M 765.10878 1337.2672 C 765.10878 1397.4811 716.29575 1446.2942 656.08182 1446.2942 C 595.86789 1446.2942 547.05486 1397.4811 547.05486 1337.2672 C 547.05486 1277.0533 595.86789 1228.2402 656.08182 1228.2402 C 716.29575 1228.2402 765.10878 1277.0533 765.10878 1337.2672 Z"/>
    <path id="path16" fill="#ffffff" transform="matrix(1 0 0 1 280.54755 0)" d="M 807.7978 1297.2209 C 903.67147 1176.2728 910.88467 1007.3843 825.67268 878.702 C 813.07949 908.35513 791.67659 933.42119 764.36292 950.50509 C 808.74193 1034.2877 805.41743 1135.3099 755.62607 1215.9935 C 781.14974 1236.8879 799.41114 1265.3195 807.7978 1297.2209 Z"/>
    <path id="path18" fill="#ffffff" transform="matrix(1 0 0 1 280.54755 0)" d="M 218.17628 899.71905 C 220.94328 899.56725 223.71172 899.49207 226.48161 899.49352 C 255.69372 899.51462 284.32322 907.66748 309.164 923.039 C 357.92311 852.61064 437.62474 809.98461 523.2722 808.52964 C 525.03457 776.37535 536.57458 745.52609 556.3482 720.1094 C 419.24532 709.25176 286.02405 780.001 218.17628 899.71905 Z"/>
</svg>
