<svg width="256" height="256" viewBox="0 0 256 256" xmlns="http://www.w3.org/2000/svg" xmlns:usvg="https://github.com/RazrFalcon/usvg" usvg:version="0.8.0">
    <path id="path2" fill="#abc2ab" transform="matrix(1 0 0 1 0.01681136 22.7651)" d="M 128.01682 0 C 105.98494 0.04678314 84.523372 7.0072685 66.657757 19.900168 L 90.560442 43.802852 C 101.83789 36.904258 114.79673 33.243118 128.01682 33.220638 C 167.78923 33.220559 200.03116 65.462484 200.03108 105.2349 C 199.99928 118.45028 196.33152 131.40209 189.42957 142.67198 L 213.37756 166.61997 C 226.26636 148.74402 233.21796 127.27282 233.25173 105.2349 C 233.25173 47.115274 186.13644 0 128.01682 0 Z"/>
    <path id="path4" fill="#478061" transform="matrix(1 0 0 1 0.01681136 22.7651)" d="M 189.37588 190.56963 L 165.47319 166.66695 C 154.19574 173.56554 141.2369 177.22669 128.01682 177.24916 C 88.244403 177.24924 56.002477 145.00731 56.002556 105.2349 C 56.034386 92.019518 59.702103 79.067704 66.604066 67.797819 L 42.656067 43.849832 C 29.76725 61.725769 22.815686 83.196977 22.781918 105.2349 C 22.781918 163.35452 69.897192 210.4698 128.01682 210.4698 C 150.0487 210.423 171.51026 203.46254 189.37588 190.56963 Z"/>
    <path id="circle6" fill="#abc2ab" transform="matrix(1 0 0 1 0.01681136 22.7651)" d="M 161.503357 105.2349 C 161.503357 123.73829313924 146.50339313924 138.738257 128 138.738257 C 109.49660686076 138.738257 94.496643 123.73829313924 94.496643 105.2349 C 94.496643 86.73150686076 109.49660686076 71.731543 128 71.731543 C 146.50339313924 71.731543 161.503357 86.73150686076 161.503357 105.2349 Z"/>
    <path id="path8" transform="matrix(1 0 0 1 0.01681136 22.7651)" d="M 30.591915 124.81039 C 29.444351 125.63007 28.39925 126.03991 27.456612 126.03991 L 23.399159 126.03991 C 22.825377 126.03991 22.37455 125.93746 22.046678 125.73254 C 21.718807 125.52761 21.452408 125.22023 21.247483 124.81039 L 0.46842244 86.203138 C 0.38645233 86.121168 0.34546728 86.01871 0.34546728 85.895763 L 0.34546728 85.526898 C 0.34546728 85.117056 0.4889149 84.78918 0.77581015 84.54327 C 1.1036817 84.256383 1.615986 84.11294 2.3127229 84.11294 L 27.579567 84.11294 C 28.932047 84.11294 29.813208 84.522781 30.223049 85.342465 L 43.010172 109.99455 L 78.85096 85.342465 C 80.039508 84.522781 81.289534 84.11294 82.601038 84.11294 L 86.597001 84.11294 C 87.129807 84.11294 87.396209 84.338353 87.396209 84.78918 C 87.396209 85.158036 87.068338 85.608863 86.412595 86.14166 Z"/>
    <path id="path10" transform="matrix(1 0 0 1 0.01681136 22.7651)" d="M 86.35303 126.03991 C 84.221843 126.03991 82.336567 125.71204 80.6972 125.05629 C 79.057816 124.35956 77.684834 123.41692 76.578256 122.22837 C 75.471677 121.03982 74.631501 119.64636 74.057728 118.04798 C 73.483955 116.4086 73.197069 114.64627 73.197069 112.76098 C 73.197069 110.34291 73.606911 107.96582 74.426594 105.62972 C 75.246277 103.29361 76.373348 101.05996 77.807807 98.92877 C 79.283234 96.797583 81.00457 94.830336 82.971817 93.027029 C 84.980049 91.223714 87.152221 89.666308 89.488334 88.354813 C 91.865431 87.043318 94.365475 86.01871 96.988465 85.280988 C 99.611473 84.50229 102.29595 84.112941 105.04189 84.112941 L 135.16537 84.112941 C 137.33755 84.112941 139.24332 84.440812 140.88271 85.096555 C 142.56306 85.752307 143.95652 86.674458 145.0631 87.863006 C 146.16968 89.010561 147.00986 90.383533 147.58363 91.981924 C 148.15742 93.580314 148.44432 95.322148 148.44432 97.207424 C 148.44432 99.625507 148.01398 102.02309 147.15331 104.40018 C 146.33361 106.73629 145.18605 108.96994 143.71062 111.10112 C 142.23518 113.2323 140.49334 115.22005 138.48511 117.06435 C 136.47688 118.86766 134.28421 120.44555 131.90712 121.79803 C 129.53004 123.10953 127.02999 124.15464 124.40699 124.93334 C 121.784 125.67106 119.1405 126.03991 116.47651 126.03991 Z M 123.36189 100.89601 C 124.71438 98.027112 125.39063 95.875437 125.39063 94.440987 C 125.39063 93.252438 124.96028 92.43275 124.0996 91.981924 C 123.27991 91.531097 122.05039 91.305684 120.41102 91.305684 L 112.05021 91.305684 C 110.86167 91.305684 109.75509 91.469619 108.73047 91.797491 C 107.74684 92.084386 106.8247 92.596691 105.96403 93.334404 C 105.10336 94.072126 104.26319 95.055754 103.4435 96.285287 C 102.66481 97.514813 101.86562 99.051721 101.04593 100.89601 L 98.095035 107.59696 C 96.537638 111.08063 95.75894 113.70363 95.75894 115.46596 C 95.75894 116.6545 96.107304 117.51517 96.804032 118.04796 C 97.500778 118.53977 98.504894 118.78568 99.81638 118.78568 L 108.23867 118.78568 C 109.50919 118.78568 110.67725 118.60125 111.74284 118.2324 C 112.80844 117.82255 113.83305 117.18729 114.81667 116.32662 C 115.80029 115.46595 116.74293 114.31839 117.64458 112.88394 C 118.54624 111.44949 119.46838 109.68716 120.41102 107.59696 Z"/>
    <path id="path12" transform="matrix(1 0 0 1 0.01681136 22.7651)" d="M 144.12269 126.03991 C 143.38498 126.03991 143.01612 125.79401 143.01612 125.3022 C 143.01612 125.0563 143.07762 124.74891 143.20056 124.38005 L 160.47543 85.711331 C 160.96726 84.645737 161.74596 84.112941 162.81156 84.112941 L 183.95947 84.112941 C 184.73817 84.112941 185.12752 84.379335 185.12752 84.912123 C 185.12752 85.158033 185.04552 85.424436 184.88163 85.711331 L 167.6682 124.38005 C 167.17638 125.48663 166.39768 126.03991 165.33208 126.03991 Z"/>
    <path id="path14" transform="matrix(1 0 0 1 0.01681136 22.7651)" d="M 174.34897 126.03991 C 173.61125 126.03991 173.2424 125.79401 173.2424 125.3022 C 173.2424 125.0563 173.3039 124.74891 173.42683 124.38005 L 190.70171 85.711331 C 191.19353 84.645737 191.97224 84.112941 193.03783 84.112941 L 242.46495 84.112941 C 244.59614 84.112941 246.48141 84.440812 248.12078 85.096555 C 249.76015 85.752307 251.13312 86.674458 252.2397 87.863006 C 253.34627 89.010561 254.18646 90.383533 254.76025 91.981924 C 255.33402 93.580314 255.62091 95.322148 255.62091 97.207424 C 255.62091 99.707477 255.19058 102.16654 254.32991 104.58461 C 253.46924 106.9617 252.28069 109.21584 250.76426 111.34703 C 249.28883 113.47821 247.52651 115.44546 245.4773 117.24877 C 243.46906 119.05208 241.2764 120.60949 238.8993 121.92098 C 236.56319 123.1915 234.10413 124.19562 231.52213 124.93333 C 228.9401 125.67105 226.35809 126.03991 223.77608 126.03991 Z M 227.83353 100.89601 C 229.14503 97.945142 229.80078 95.793467 229.80078 94.440987 C 229.80078 93.252438 229.39094 92.43275 228.57126 91.981924 C 227.75157 91.531097 226.56302 91.305684 225.00561 91.305684 L 212.52588 91.305684 L 200.35353 118.78568 L 212.77179 118.78568 C 214.00132 118.78568 215.14888 118.60125 216.21448 118.2324 C 217.28007 117.82255 218.28419 117.1873 219.22682 116.32662 C 220.21045 115.42496 221.15309 114.27741 222.05474 112.88394 C 222.99738 111.44949 223.94002 109.68716 224.88265 107.59696 Z"/>
</svg>
