<svg width="186.12625" height="161.205" viewBox="0 0 186.12625 161.205" xmlns="http://www.w3.org/2000/svg" xmlns:usvg="https://github.com/RazrFalcon/usvg" usvg:version="0.8.0">
    <path id="path58" fill="#0d597f" transform="matrix(1.25 0 0 -1.25 67.6175 100.39999999999998)" d="M 0 0 L 0 15.687 L -11.296 4.379 C -10.079 3.532 -8.932 2.836 -7.853 2.27 C -6.774 1.703 -5.764 1.265 -4.823 0.932 C -3.882 0.598 -3.009 0.37 -2.206 0.222 C -1.402 0.075 -0.667 0.009 0 0 M 57.751 1.304 C 57.771 1.287 57.881 1.194 58.084 1.065 C 58.288 0.935 58.586 0.768 58.982 0.603 C 59.377 0.439 59.871 0.276 60.467 0.155 C 61.063 0.033 61.761 -0.047 62.565 -0.047 C 63.236 -0.047 63.976 0.012 64.787 0.153 C 65.599 0.295 66.48 0.52 67.432 0.852 C 68.385 1.185 69.408 1.625 70.502 2.196 C 71.596 2.768 72.761 3.472 73.997 4.332 L 65.425 12.729 L 37.015 41.245 L 24.549 28.776 L 7.733 46.117 L -34.471 4.39 C -33.236 3.53 -32.073 2.826 -30.98 2.254 C -29.887 1.683 -28.865 1.243 -27.913 0.91 C -26.962 0.578 -26.081 0.353 -25.27 0.212 C -24.46 0.07 -23.72 0.011 -23.05 0.011 C -22.246 0.011 -21.548 0.091 -20.953 0.213 C -20.357 0.334 -19.864 0.497 -19.468 0.662 C -19.072 0.826 -18.775 0.993 -18.571 1.123 C -18.367 1.253 -18.257 1.346 -18.237 1.363 L 0.815 20.415 L 7.628 26.948 L 26.494 8.082 L 33.085 1.304 C 33.105 1.287 33.215 1.194 33.419 1.065 C 33.623 0.935 33.92 0.768 34.316 0.603 C 34.712 0.439 35.206 0.276 35.801 0.155 C 36.397 0.033 37.096 -0.047 37.9 -0.047 C 38.57 -0.047 39.311 0.012 40.122 0.153 C 40.933 0.295 41.815 0.52 42.767 0.852 C 43.719 1.185 44.742 1.625 45.836 2.196 C 46.93 2.768 48.095 3.472 49.331 4.332 L 34.192 19.157 L 37.01 21.975 L 50.111 8.874 L 57.751 1.304 M 57.588 80.32 L 94.807 15.838 L 57.588 -48.644 L -16.875 -48.644 L -54.094 15.838 L -16.875 80.32 Z"/>
    <path id="path62" fill="#0d597f" transform="matrix(1.25 0 0 -1.25 110.573375 76.67599999999993)" d="M 0 0 L -9.913 9.895 L -9.208 10.604 L 0.775 0.73 Z"/>
</svg>
