<svg width="400" height="400" viewBox="0 0 400 400" xmlns="http://www.w3.org/2000/svg" xmlns:usvg="https://github.com/RazrFalcon/usvg" usvg:version="0.8.0">
    <defs>
        <linearGradient id="_Linear1" x1="0" y1="0" x2="1" y2="0" gradientUnits="userSpaceOnUse" gradientTransform="matrix(244.692 1281.55 -1281.55 244.692 -44.6924 -886.62)">
            <stop offset="0" stop-color="#ffffff"/>
            <stop offset="0.34" stop-color="#ffffff"/>
            <stop offset="0.51" stop-color="#bebdf3"/>
            <stop offset="0.75" stop-color="#867fb7"/>
            <stop offset="0.87" stop-color="#9f99c7"/>
            <stop offset="1" stop-color="#524c76"/>
        </linearGradient>
        <linearGradient id="_Linear2" x1="0" y1="0" x2="1" y2="0" gradientUnits="userSpaceOnUse" gradientTransform="matrix(-73.9103 -331.394 331.394 -73.9103 256.323 293.128)">
            <stop offset="0" stop-color="#ffffff"/>
            <stop offset="0.34" stop-color="#ffffff"/>
            <stop offset="0.51" stop-color="#bebbdb"/>
            <stop offset="0.75" stop-color="#928bbe"/>
            <stop offset="0.87" stop-color="#9f99c7"/>
            <stop offset="1" stop-color="#524c76"/>
        </linearGradient>
        <radialGradient id="_Radial3" cx="0" cy="0" r="1" fx="0" fy="0" gradientUnits="userSpaceOnUse" gradientTransform="matrix(65.7758 0 0 50.4149 169.619 91.661)">
            <stop offset="0" stop-color="#ffffff"/>
            <stop offset="0.34" stop-color="#ffffff"/>
            <stop offset="0.51" stop-color="#bebbdb"/>
            <stop offset="0.75" stop-color="#928bbe"/>
            <stop offset="0.87" stop-color="#9f99c7"/>
            <stop offset="1" stop-color="#524c76"/>
        </radialGradient>
        <radialGradient id="_Radial4" cx="0" cy="0" r="1" fx="0" fy="0" gradientUnits="userSpaceOnUse" gradientTransform="matrix(-9.01713 572.145 -487.965 -7.68295 19.9686 107.795)">
            <stop offset="0" stop-color="#ffffff"/>
            <stop offset="0.34" stop-color="#ffffff"/>
            <stop offset="0.51" stop-color="#bebbdb"/>
            <stop offset="0.75" stop-color="#928bbe"/>
            <stop offset="0.87" stop-color="#9f99c7"/>
            <stop offset="1" stop-color="#524c76"/>
        </radialGradient>
    </defs>
    <path id="path2973" fill="url(#_Linear1)" fill-rule="evenodd" d="M 13.83 315.949 C 13.873 299.502 27.854 276.541 47.719 255.681 C 60.995 241.74 74.478 229.503 103.869 204.443 C 83.539 193.287 51.919 179.828 36.054 162.201 C 30.184 155.679 19.543 140.903 21.607 121.162 C 25.813 80.926 75.476 19.864 146.067 6.955 C 169.555 2.659 196.522 5.76 218.717 15.738 C 288.346 47.042 373.499 124.811 383.976 162.784 C 387.664 176.15 386.955 197.455 380.597 209.329 C 372.718 224.045 345.441 253.935 308.122 284.778 C 249.566 333.172 167.51 385.137 106.241 393.881 C 86.443 396.707 66.217 393.76 52.023 385.751 C 29.814 373.219 22.442 356.489 19.851 351.474 C 12.96 338.14 13.815 321.246 13.83 315.949 Z M 178.63 131.173 C 179.386 121.848 215.951 131.131 213.641 138.516 C 211.204 146.307 177.762 141.87 178.63 131.173 Z"/>
    <path id="path2975" fill="url(#_Linear2)" fill-rule="evenodd" d="M 123.659 189.035 C 104.417 205.281 91.623 216.235 75.584 230.895 C 36.958 266.199 10.713 293.071 24.244 329.804 C 39.853 372.178 74.068 370.03 114.191 362.154 C 217.612 341.756 387.617 211.059 378.952 162.784 C 371.94 123.723 276.96 46.063 220.725 18.428 C 203.156 9.794 182.909 5.329 162.601 6.285 C 85.274 9.935 24.886 80.337 27.971 118.482 C 30.972 155.592 124.766 187.928 123.659 189.035 Z M 112.052 59.482 C 88.784 85.37 103.66 135.456 142.247 162.756 C 187.399 194.701 260.516 200.485 275.066 175.849 C 302.206 129.897 272.573 81.309 228.339 59.635 C 184.628 38.217 126.556 43.345 112.052 59.482 L 112.052 59.482 Z"/>
    <path id="path4976" fill="url(#_Radial3)" fill-rule="evenodd" d="M 191.403 161.67 C 224.069 166.211 252.225 153.129 256.628 120.872 C 259.982 96.301 222.378 69.455 199.769 63.264 C 180.889 58.093 139.9 64.742 137.136 100.45 C 134.264 137.571 172.356 159.023 191.403 161.67 Z M 175.407 99.931 C 153.939 133.189 206.576 143.414 214.635 137.349 C 249.379 111.2 184.865 85.279 175.407 99.931 Z"/>
    <path id="path2977" fill="url(#_Radial4)" fill-rule="evenodd" d="M 156.368 15.122 C 118.394 19.123 111.122 24.011 76.721 50.038 C 65.191 58.761 43.971 79.986 38.534 105.166 C 36.463 114.756 38.911 123.036 45.817 128.842 C 67.933 147.435 104.948 162.519 135.315 177.101 C 144.209 181.372 138.32 189.116 123.977 201.533 C 87.783 232.867 38.849 271.009 35.433 300.073 C 33.823 313.768 38.512 332.378 55.135 341.901 C 74.554 353.026 114.864 345.765 141.781 335.742 C 181.115 321.095 232.784 288.769 273.804 256.994 C 316.459 223.951 356.12 181.983 358.081 175.138 C 360.49 166.732 360.25 158.969 355.601 150.042 C 348.3 136.025 338.539 125.61 328.059 113.951 C 299.937 84.304 270.183 58.254 234.584 38.291 C 208.877 23.875 186.259 11.972 156.368 15.122 Z M 212.149 81.588 C 239.583 94.851 267.755 129.69 211.904 149.742 C 196.717 155.195 148.552 136.351 150.026 110.635 C 152.176 72.648 178.651 65.393 212.149 81.588 L 212.149 81.588 Z"/>
</svg>
